<svg width="506" height="312" viewBox="0 0 506 312" fill="none" xmlns="http://www.w3.org/2000/svg">
<path d="M226.836 110H260.836V118.5H260.751V161H243.751V118.5H235.421V161H218.336V110H226.836ZM269.251 118.5H260.751V110H277.751V118.5H286.251V161H269.251V118.5ZM296.114 101.5V84.5H313.114V101.5H296.114ZM296.114 161V110H313.114V161H296.114ZM330.098 161V84.5H347.098V161H330.098ZM364.131 161V84.5H381.131V161H364.131Z" fill="#D89E43"/>
<path d="M398 161.375V140.125H408.625V129.5H419.25V118.875H408.625V108.25H398V87H419.25V108.25H429.875V118.875H440.5V108.25H451.125V87H472.375V108.25H461.75V118.875H451.125V129.5H461.75V140.125H472.375V161.375H451.125V140.125H440.5V129.5H429.875V140.125H419.25V161.375H398Z" fill="#47AB6F"/>
<path d="M251.097 241.891C246.885 241.891 242.97 241.162 239.352 239.704C235.734 238.192 232.548 236.113 229.794 233.467C227.04 230.767 224.88 227.662 223.314 224.152C221.802 220.588 221.046 216.754 221.046 212.65C221.046 208.546 221.802 204.739 223.314 201.229C224.88 197.665 227.013 194.56 229.713 191.914C232.413 189.214 235.572 187.135 239.19 185.677C242.862 184.165 246.777 183.409 250.935 183.409C255.633 183.409 260.061 184.354 264.219 186.244C268.377 188.08 271.806 190.672 274.506 194.02L266.325 201.553C264.381 199.123 262.086 197.287 259.44 196.045C256.794 194.803 253.959 194.182 250.935 194.182C248.397 194.182 246.048 194.668 243.888 195.64C241.728 196.558 239.838 197.854 238.218 199.528C236.598 201.148 235.329 203.092 234.411 205.36C233.547 207.574 233.115 210.004 233.115 212.65C233.115 215.296 233.574 217.753 234.492 220.021C235.41 222.289 236.679 224.26 238.299 225.934C239.973 227.554 241.89 228.85 244.05 229.822C246.264 230.74 248.667 231.199 251.259 231.199C253.959 231.199 256.389 230.713 258.549 229.741C260.709 228.715 262.518 227.311 263.976 225.529C265.488 223.693 266.487 221.641 266.973 219.373H250.206V209.167H279.528V212.731C279.528 216.943 278.799 220.831 277.341 224.395C275.937 227.905 273.966 230.983 271.428 233.629C268.89 236.221 265.893 238.246 262.437 239.704C258.981 241.162 255.201 241.891 251.097 241.891ZM286.813 241V198.799H297.91V203.497C299.26 201.661 300.88 200.257 302.77 199.285C304.66 198.313 306.793 197.827 309.169 197.827C311.221 197.881 312.76 198.205 313.786 198.799V208.519C312.976 208.141 312.085 207.871 311.113 207.709C310.141 207.493 309.142 207.385 308.116 207.385C305.956 207.385 303.985 207.925 302.203 209.005C300.421 210.085 298.99 211.624 297.91 213.622V241H286.813ZM338.791 241.81C334.579 241.81 330.772 240.838 327.37 238.894C323.968 236.95 321.268 234.331 319.27 231.037C317.272 227.743 316.273 224.044 316.273 219.94C316.273 215.836 317.245 212.137 319.189 208.843C321.187 205.495 323.887 202.849 327.289 200.905C330.745 198.961 334.579 197.989 338.791 197.989C343.003 197.989 346.81 198.961 350.212 200.905C353.668 202.849 356.368 205.495 358.312 208.843C360.31 212.137 361.309 215.836 361.309 219.94C361.309 224.044 360.31 227.743 358.312 231.037C356.368 234.331 353.695 236.95 350.293 238.894C346.891 240.838 343.057 241.81 338.791 241.81ZM338.791 232.171C341.005 232.171 342.976 231.631 344.704 230.551C346.486 229.471 347.89 228.013 348.916 226.177C349.996 224.287 350.536 222.208 350.536 219.94C350.536 217.618 349.996 215.539 348.916 213.703C347.89 211.867 346.486 210.409 344.704 209.329C342.976 208.195 341.005 207.628 338.791 207.628C336.631 207.628 334.66 208.195 332.878 209.329C331.096 210.409 329.692 211.867 328.666 213.703C327.64 215.539 327.127 217.618 327.127 219.94C327.127 222.208 327.64 224.287 328.666 226.177C329.692 228.013 331.096 229.471 332.878 230.551C334.66 231.631 336.631 232.171 338.791 232.171ZM384.492 241.81C381.252 241.81 378.363 241.108 375.825 239.704C373.341 238.246 371.37 236.248 369.912 233.71C368.508 231.172 367.806 228.256 367.806 224.962V198.799H378.903V223.342C378.903 226.042 379.686 228.202 381.252 229.822C382.872 231.442 385.032 232.252 387.732 232.252C389.568 232.252 391.215 231.901 392.673 231.199C394.185 230.443 395.427 229.39 396.399 228.04V198.799H407.496V241H396.399V237.598C393.159 240.406 389.19 241.81 384.492 241.81ZM416.145 257.524V198.799H427.08V202.282C430.536 199.582 434.532 198.232 439.068 198.232C443.064 198.232 446.682 199.204 449.922 201.148C453.162 203.092 455.727 205.711 457.617 209.005C459.561 212.245 460.533 215.89 460.533 219.94C460.533 223.99 459.561 227.662 457.617 230.956C455.673 234.196 453.054 236.788 449.76 238.732C446.466 240.622 442.794 241.567 438.744 241.567C436.638 241.567 434.613 241.297 432.669 240.757C430.725 240.163 428.916 239.326 427.242 238.246V257.524H416.145ZM437.286 232.171C439.608 232.171 441.687 231.631 443.523 230.551C445.413 229.471 446.898 228.013 447.978 226.177C449.058 224.341 449.598 222.262 449.598 219.94C449.598 217.618 449.058 215.539 447.978 213.703C446.898 211.813 445.413 210.355 443.523 209.329C441.687 208.249 439.608 207.709 437.286 207.709C435.234 207.709 433.344 208.06 431.616 208.762C429.942 209.41 428.484 210.409 427.242 211.759V228.202C428.43 229.444 429.888 230.416 431.616 231.118C433.398 231.82 435.288 232.171 437.286 232.171Z" fill="#47AB6F"/>
<path fill-rule="evenodd" clip-rule="evenodd" d="M42.0237 178.711C41.9497 234.649 42.0488 262.939 42.3255 264.822C43.4115 272.207 49.1668 279.169 56.4811 281.945L58.8542 282.845L96.7688 282.955C138.553 283.076 137.339 283.139 142.356 280.592C145.344 279.075 149.946 274.55 151.512 271.588C154.088 266.718 153.919 273.067 153.961 179.913V150L98.6641 96L42.0237 150V178.711ZM143.848 251.004V179.712V150L98.6641 104.5L62.5 136L53.4798 156.468V179.712V251.004H98.6641H143.848ZM101.898 275.523C108.242 272.225 108.668 262.997 102.65 259.225C98.5312 256.643 92.7551 257.742 90.1086 261.612C86.7068 266.587 88.2964 272.834 93.6879 275.678C95.6732 276.726 99.733 276.649 101.898 275.523Z" fill="#D89E43"/>
<path d="M17 188.625V141.875H40.375V118.5H63.75V95.125H40.375V71.75H17V25H63.75V71.75H87.125V95.125H110.5V71.75H133.875V25H180.625V71.75H157.25V95.125H133.875V118.5H157.25V141.875H180.625V188.625H133.875V141.875H110.5V118.5H87.125V141.875H63.75V188.625H17Z" fill="#47AB6F"/>
</svg>
