<svg width="196" height="196" viewBox="0 0 196 196" fill="none" xmlns="http://www.w3.org/2000/svg">
<path d="M97.999 159.134C132.76 159.134 161.553 130.402 161.553 95.5801C161.553 60.8193 132.76 32.0264 97.9375 32.0264C63.1768 32.0264 34.4453 60.8193 34.4453 95.5801C34.4453 130.402 63.2383 159.134 97.999 159.134ZM97.999 149.29C71.4824 149.29 49.0264 129.418 44.9658 103.886C45.335 103.947 45.6426 103.947 46.0117 103.947C52.5947 103.947 56.9629 98.3486 56.9629 89.7969C56.9629 87.0898 57.4551 86.29 59.2393 85.4287L63.1768 83.583C65.2686 82.5371 67.1758 83.3369 68.4678 85.1211L75.7891 95.8262C82.5566 105.608 89.4473 109.607 95.7842 109.607C101.875 109.607 105.997 105.731 105.997 99.7637C105.997 96.2568 104.213 93.2422 101.321 91.335C99.4756 90.043 100.029 88.5664 101.69 88.5664C116.702 88.5664 124.639 83.1523 124.639 72.2627C124.639 57.8662 112.457 57.0664 112.457 53.375C112.457 51.1602 115.226 49.9297 117.133 45.5C137.189 53.3135 151.709 72.9395 151.709 95.5801C151.709 101.24 150.786 106.716 149.125 111.884C145.926 109.238 143.342 108.131 140.327 108.131C137.989 108.131 136.697 108.746 135.405 109.177C134.113 109.546 133.498 108.992 133.313 107.885C132.698 103.394 129.868 101.609 125.315 101.609H122.116C118.363 101.609 115.349 103.578 113.072 107.085L112.088 108.623C110.55 111.022 109.196 112.991 107.843 114.283C106.551 115.452 105.566 116.006 103.044 116.806L100.214 117.667C95.9072 119.021 94.6152 122.773 95.7842 126.957L98.7373 137.354C99.8447 141.169 102.121 143.138 105.813 143.138C107.412 143.138 109.381 142.522 111.411 141.538L112.334 141.107C113.749 140.431 114.795 140.185 115.841 140.185C118.24 140.185 119.84 141.354 121.686 143.691C114.549 147.26 106.489 149.29 97.999 149.29Z" fill="#71B2CF"/>
</svg>
