<svg width="196" height="196" viewBox="0 0 196 196" fill="none" xmlns="http://www.w3.org/2000/svg">
<path fill-rule="evenodd" clip-rule="evenodd" d="M163.782 98.3606C163.782 133.908 134.441 163.249 98.8937 163.249C63.409 163.249 34.0684 133.908 34.0684 98.3606C34.0684 62.8759 63.3463 33.5353 98.831 33.5353C134.378 33.5353 163.782 62.8759 163.782 98.3606Z" fill="#71B2CF"/>
<path d="M98.9289 62.068C88.3045 62.068 79.8633 70.5384 79.8633 81.1045C79.8633 88.9345 84.4623 95.8621 91.7393 98.7729V126.978C91.7393 127.823 92.0012 128.579 92.6416 129.22L97.7064 134.11C98.3467 134.75 99.5693 134.896 100.384 134.081L109.553 124.912C110.397 124.068 110.368 122.845 109.553 122.03L104.285 116.82L111.678 109.426C112.435 108.64 112.464 107.418 111.62 106.574L104.43 99.3551C113.133 95.6584 117.965 88.9927 117.965 81.1045C117.965 70.5675 109.495 62.068 98.9289 62.068ZM98.9289 79.7655C96.1054 79.7655 93.8059 77.466 93.8059 74.6426C93.8059 71.79 96.0763 69.5196 98.9289 69.5196C101.752 69.5196 104.052 71.8191 104.052 74.6426C104.052 77.466 101.752 79.7655 98.9289 79.7655Z" fill="#2A292E"/>
</svg>
