<svg width="196" height="196" viewBox="0 0 196 196" fill="none" xmlns="http://www.w3.org/2000/svg">
<path d="M97.9375 158.149C99.0449 158.149 100.645 157.719 102.244 156.919C137.497 138.77 149.187 129.233 149.187 107.146V61.4346C149.187 54.1748 146.356 51.5293 140.266 49.0068C133.498 46.1768 110.98 38.2402 104.397 36.0254C102.367 35.4102 100.091 34.9795 97.9375 34.9795C95.8457 34.9795 93.5693 35.4102 91.5391 36.0254C84.8945 38.1172 62.377 46.2383 55.6709 49.0068C49.5801 51.4678 46.75 54.1748 46.75 61.4346V107.146C46.75 129.233 58.9316 137.908 93.6924 156.919C95.292 157.78 96.8916 158.149 97.9375 158.149Z" fill="#71B2CF"/>
</svg>
